<mxfile host="app.diagrams.net" agent="Mozilla/5.0 (Windows NT 10.0; Win64; x64) AppleWebKit/537.36 (KHTML, like Gecko) Chrome/129.0.0.0 Safari/537.36" version="24.7.17">
  <diagram name="Trang-1" id="bDVv1e3oTfBdYUgQ_pnl">
    <mxGraphModel dx="1050" dy="603" grid="1" gridSize="10" guides="1" tooltips="1" connect="1" arrows="1" fold="1" page="1" pageScale="1" pageWidth="827" pageHeight="1169" math="0" shadow="0">
      <root>
        <mxCell id="0" />
        <mxCell id="1" parent="0" />
        <mxCell id="vlDtOK5C-TWZ5yuRX0Ac-1" value="Start" style="ellipse;whiteSpace=wrap;html=1;" vertex="1" parent="1">
          <mxGeometry x="340" width="120" height="80" as="geometry" />
        </mxCell>
        <mxCell id="vlDtOK5C-TWZ5yuRX0Ac-2" value="" style="endArrow=classic;html=1;rounded=0;exitX=0.5;exitY=1;exitDx=0;exitDy=0;" edge="1" parent="1" source="vlDtOK5C-TWZ5yuRX0Ac-1">
          <mxGeometry width="50" height="50" relative="1" as="geometry">
            <mxPoint x="440" y="160" as="sourcePoint" />
            <mxPoint x="400" y="150" as="targetPoint" />
          </mxGeometry>
        </mxCell>
        <mxCell id="vlDtOK5C-TWZ5yuRX0Ac-3" value="Input Number_of_Cans" style="shape=parallelogram;perimeter=parallelogramPerimeter;whiteSpace=wrap;html=1;fixedSize=1;" vertex="1" parent="1">
          <mxGeometry x="310" y="150" width="190" height="60" as="geometry" />
        </mxCell>
        <mxCell id="vlDtOK5C-TWZ5yuRX0Ac-4" value="" style="endArrow=classic;html=1;rounded=0;exitX=0.5;exitY=1;exitDx=0;exitDy=0;" edge="1" parent="1" source="vlDtOK5C-TWZ5yuRX0Ac-3">
          <mxGeometry width="50" height="50" relative="1" as="geometry">
            <mxPoint x="420" y="310" as="sourcePoint" />
            <mxPoint x="405" y="290" as="targetPoint" />
          </mxGeometry>
        </mxCell>
        <mxCell id="vlDtOK5C-TWZ5yuRX0Ac-5" value="Total_Cost = Number_of_Cans × 350,000&lt;div&gt;Number_of_Hats = Number_of_Cans // 3&lt;br&gt;&lt;/div&gt;&lt;div&gt;Remaining_Cans = Number_of_Cans % 3&lt;br&gt;&lt;/div&gt;&lt;div&gt;Number_of_Pens = 2 × Remaining_Cans&lt;br&gt;&lt;/div&gt;" style="rounded=0;whiteSpace=wrap;html=1;" vertex="1" parent="1">
          <mxGeometry x="280" y="290" width="260" height="90" as="geometry" />
        </mxCell>
        <mxCell id="vlDtOK5C-TWZ5yuRX0Ac-7" value="" style="endArrow=classic;html=1;rounded=0;exitX=0.475;exitY=1.016;exitDx=0;exitDy=0;exitPerimeter=0;" edge="1" parent="1" source="vlDtOK5C-TWZ5yuRX0Ac-5">
          <mxGeometry width="50" height="50" relative="1" as="geometry">
            <mxPoint x="410" y="460" as="sourcePoint" />
            <mxPoint x="404" y="440" as="targetPoint" />
          </mxGeometry>
        </mxCell>
        <mxCell id="vlDtOK5C-TWZ5yuRX0Ac-8" value="Print Total_Cost, Number_of_Hats, Number_of_Pens&amp;nbsp;" style="shape=parallelogram;perimeter=parallelogramPerimeter;whiteSpace=wrap;html=1;fixedSize=1;" vertex="1" parent="1">
          <mxGeometry x="270" y="440" width="270" height="90" as="geometry" />
        </mxCell>
        <mxCell id="vlDtOK5C-TWZ5yuRX0Ac-9" value="" style="endArrow=classic;html=1;rounded=0;exitX=0.5;exitY=1;exitDx=0;exitDy=0;" edge="1" parent="1" source="vlDtOK5C-TWZ5yuRX0Ac-8">
          <mxGeometry width="50" height="50" relative="1" as="geometry">
            <mxPoint x="430" y="640" as="sourcePoint" />
            <mxPoint x="405" y="600" as="targetPoint" />
          </mxGeometry>
        </mxCell>
        <mxCell id="vlDtOK5C-TWZ5yuRX0Ac-10" value="End" style="ellipse;whiteSpace=wrap;html=1;" vertex="1" parent="1">
          <mxGeometry x="344" y="600" width="120" height="80" as="geometry" />
        </mxCell>
      </root>
    </mxGraphModel>
  </diagram>
</mxfile>
